<svg xmlns="http://www.w3.org/2000/svg" viewBox="0 0 200 280">
  <defs>
    <linearGradient id="umbrellaGrad" x1="0" x2="1" y1="0" y2="0.5">
      <stop offset="0" stop-color="#ff5f9e"/>
      <stop offset="1" stop-color="#ff8fb1"/>
    </linearGradient>
  </defs>
  
  <!-- Umbrella handle -->
  <rect x="94" y="100" width="12" height="80" rx="6" fill="#8b6f47"/>
  
  <!-- Umbrella cap (dome) -->
  <path d="M 50 100 Q 100 30 150 100 Q 135 85 100 85 Q 65 85 50 100" fill="url(#umbrellaGrad)" stroke="#ff4d8f" stroke-width="2"/>
  
  <!-- Woman figure -->
  <!-- Woman head -->
  <circle cx="75" cy="120" r="12" fill="#f4a460"/>
  
  <!-- Woman hair -->
  <path d="M 63 120 Q 63 105 75 105 Q 87 105 87 120" fill="#8b4513"/>
  
  <!-- Woman body -->
  <rect x="70" y="133" width="10" height="25" rx="5" fill="#ff69b4"/>
  
  <!-- Woman left arm -->
  <line x1="70" y1="140" x2="55" y2="150" stroke="#f4a460" stroke-width="3" stroke-linecap="round"/>
  
  <!-- Woman right arm (holding umbrella) -->
  <line x1="80" y1="140" x2="95" y2="135" stroke="#f4a460" stroke-width="3" stroke-linecap="round"/>
  
  <!-- Woman legs -->
  <line x1="73" y1="158" x2="70" y2="180" stroke="#333" stroke-width="2.5" stroke-linecap="round"/>
  <line x1="77" y1="158" x2="80" y2="178" stroke="#333" stroke-width="2.5" stroke-linecap="round"/>
  
  <!-- Woman shoes -->
  <ellipse cx="70" cy="182" rx="3" ry="2" fill="#000"/>
  <ellipse cx="80" cy="180" rx="3" ry="2" fill="#000"/>
  
  <!-- Man figure -->
  <!-- Man head -->
  <circle cx="125" cy="118" r="12" fill="#d4a574"/>
  
  <!-- Man hair -->
  <path d="M 113 118 Q 113 103 125 103 Q 137 103 137 118" fill="#333"/>
  
  <!-- Man body -->
  <rect x="120" y="131" width="10" height="27" rx="5" fill="#4169e1"/>
  
  <!-- Man left arm (holding umbrella) -->
  <line x1="120" y1="138" x2="105" y2="130" stroke="#d4a574" stroke-width="3" stroke-linecap="round"/>
  
  <!-- Man right arm -->
  <line x1="130" y1="138" x2="145" y2="152" stroke="#d4a574" stroke-width="3" stroke-linecap="round"/>
  
  <!-- Man legs -->
  <line x1="123" y1="158" x2="120" y2="182" stroke="#333" stroke-width="2.5" stroke-linecap="round"/>
  <line x1="127" y1="158" x2="130" y2="180" stroke="#333" stroke-width="2.5" stroke-linecap="round"/>
  
  <!-- Man shoes -->
  <ellipse cx="120" cy="184" rx="3" ry="2" fill="#000"/>
  <ellipse cx="130" cy="182" rx="3" ry="2" fill="#000"/>
  
  <!-- Raindrops (hint of rain) -->
  <line x1="40" y1="150" x2="42" y2="165" stroke="rgba(200,230,255,0.4)" stroke-width="1" opacity="0.6"/>
  <line x1="160" y1="140" x2="162" y2="155" stroke="rgba(200,230,255,0.4)" stroke-width="1" opacity="0.6"/>
</svg>